<svg xmlns="http://www.w3.org/2000/svg" width="20" height="20" viewBox="0 0 20 20">
  <g>
    <path fill="rgb(255,255,255)" fill-rule="evenodd" d="M10 0C4.47717285 0 0 4.47717285 0 10s4.47717285 10 10 10 10-4.47717285 10-10S15.52282715 0 10 0zM1.6666565 10c0-4.602417 3.73095703-8.33337402 8.3333435-8.33337402 4.60235596 0 8.33331299 3.73095703 8.33331299 8.33337402 0 4.60229492-3.73095703 8.33325195-8.33331299 8.33325195-4.60238647 0-8.3333435-3.73095703-8.3333435-8.33325195z"/>
    <path fill="rgb(255,255,255)" fill-rule="evenodd" d="M7.99304145 18.94645453c-.080625-.10404167-.080625-1.03095834 0-2.78066667-.86329167.02983333-1.40870833-.03008333-1.63625-.17970833-.341375-.22445834-.68308333-.91666667-.98633333-1.4045-.30320834-.48783334-.97616667-.56495834-1.2479375-.674-.2717625-.10908334-.33998334-.553625.74885416-.21741667 1.08879167.33620833 1.14191667 1.25175 1.48541667 1.46583333.34345833.21408334 1.16466667.12041667 1.536875-.05108333.37225-.1715.34483333-.81004167.41120833-1.063.08391667-.236125-.21183333-.2885-.21833333-.29041667-.36341667 0-2.27241667-.41516666-2.79675-2.26379166-.524375-1.84858334.15108333-3.056875.51141667-3.57629167.24025-.34629167.219-1.08429167-.06375-2.21408333 1.0265-.13116667 1.81866666.19191666 2.37645833.96933333.00054167.00445833.73129167-.43454167 1.88620833-.43454167 1.154875 0 1.56458334.35758334 1.88079167.43454167.31620833.07695833.56908333-1.36083333 2.52191667-.96933333-.40770834.80133333-.749125 1.80266666-.48854167 2.21408333.260625.41141667 1.28341667 1.71966667.655125 3.57629167-.41883333 1.23779166-1.24220833 1.992375-2.47008333 2.26379166-.14079167.04491667-.21120834.11741667-.21120834.21741667 0 .15004167.190375.16641667.46458334.86925.18283333.46854167.19604166 1.80679167.039625 4.01470833-.39625.100875-.7045.16858334-.92479167.20320834-.39058333.061375-.81466667.09579166-1.23133333.10908333-.41666667.01329167-.561375.01179167-1.13745834-.04183333-.384-.03575-.75258333-.09470834-1.10570833-.176875z"/>
  </g>
</svg>
