<svg xmlns="http://www.w3.org/2000/svg" xmlns:xlink="http://www.w3.org/1999/xlink" width="30" height="35.205" viewBox="0 0 30 35.205">
  <defs>
    <path id="path-2" fill-rule="evenodd" d="M18.0454 23.24690988c1.34324412-.29717094 2.56209412-.8125052 3.50957941-1.56908634C23.17305294 20.38591826 24 18.3905002 24 16.41905809c0-1.3830496-.49249118-2.67418146-1.34514412-3.7677943-.47511176-.60939378.9145706-5.15626379-.32015-4.54389533-1.23472059.6123625-3.04514117 1.96781299-3.9941353 1.66867281-1.01599705-.32027233-2.12313823-.49623084-3.28174705-.49623084-1.00632941 0-1.97382059.1327423-2.87648824.37749335-1.31211764.35575437-2.56695588-.97243016-3.82939411-1.54993532-1.2624606-.57751111-.57357647 4.12529778-.94854706 4.61980926-.8166703 1.07725208-1.28674706 2.34071938-1.28674706 3.69188037 0 1.9714421 1.0007747 3.96686017 2.6188147 5.25876545 1.07785883.86063559 2.42959706 1.40910783 3.94182942 1.67938763"/>
  </defs>
  <g>
    <ellipse cx="15" cy="15" fill="rgb(240,240,240)" rx="15" ry="15"/>
    <g>
      <g>
        <use fill="rgb(34,34,34)" xlink:href="#path-2"/>
        <use fill-opacity="0" stroke="rgb(34,34,34)" stroke-dasharray="0 0 0 0" stroke-linecap="round" stroke-linejoin="miter" stroke-width="2" xlink:href="#path-2"/>
      </g>
      <path fill="none" stroke="rgb(34,34,34)" stroke-dasharray="0 0 0 0" stroke-linecap="round" stroke-linejoin="miter" stroke-width="2" d="M5 23.68656818c.5023097.06538356.87486059.31127094 1.11764706.73766215.3641797.63949758 1.7179353 3.0119271 3.25520294 3.0119271h2.33437353"/>
      <g>
        <rect width="5.675" height="8.253" x="12.499" y="22.247" fill="rgb(34,34,34)"/>
        <path fill="none" stroke="rgb(34,34,34)" stroke-dasharray="0 0 0 0" stroke-linecap="round" stroke-linejoin="miter" stroke-width="2" d="M13.46973431 22.35721117c-.64739706.75860392-.97106764 1.47895341-.97106764 2.16110796v5.18558822"/>
        <path fill="none" stroke="rgb(34,34,34)" stroke-dasharray="0 0 0 0" stroke-linecap="round" stroke-linejoin="miter" stroke-width="2" d="M17.2538451 22.24696937c.61342059.85718496.92015882 1.62679522.92015882 2.30894976v5.1480477"/>
        <path fill="none" stroke="rgb(34,34,34)" stroke-dasharray="0 0 0 0" stroke-linecap="round" stroke-linejoin="miter" stroke-width="2" d="M12.91666667 29.69996667h4.75"/>
      </g>
    </g>
  </g>
</svg>
