<svg xmlns="http://www.w3.org/2000/svg" width="59" height="59" viewBox="0 0 59 59">
  <g>
    <path fill="rgb(255,51,102)" fill-rule="evenodd" d="M4 0h51.00000002c2.2076601 0 4 1.7923399 4 4v51.00000002c0 2.2076601-1.7923399 4-4 4H4c-2.2076601 0-4-1.7923399-4-4V4c0-2.2076601 1.7923399-4 4-4z"/>
    <path fill="rgb(255,255,255)" fill-rule="evenodd" d="M19.7178 18.56376c1.94487123-.03502524 3.49713498-1.63272509 3.47605042-3.5777974-.02108457-1.9450723-1.6076176-3.50874762-3.55279107-3.50160481-1.94517347.0071428-3.52018003 1.58242752-3.52697934 3.52760222.00308567.95007078.38542337 1.8595759 1.06208517 2.52648881.6766618.6669129 1.5916193 1.03601241 2.54163483 1.02531119z"/>
    <path fill="rgb(255,255,255)" fill-rule="evenodd" d="M12.24368 37.58064001c-.20420333.87526661-.31105188 1.77041996-.3186 2.66916 0 3.127 1.69684 5.2038 5.30056 5.2038 2.99012 0 5.41384-1.77472 7.15788-4.64212l-1.06436 4.27632h5.94484001l3.39132-13.6054c.84724-3.4456 2.4898-5.23448 4.98196-5.23448 1.96116 0 3.18128 1.22012 3.18128 3.2332.0061331.64584208-.08617967 1.28884826-.27376 1.90688l-1.74876 6.254c-.24923793.86124195-.37400805 1.75370593-.37052 2.65028 0 2.96888 1.74876 5.14008 5.40676 5.14008 3.127 0 5.61916-2.01308 6.9974-6.844l-2.33168-.89916c-1.16584 3.23084-2.17356 3.81612-2.96888 3.81612-.79532 0-1.22012-.52864-1.22012-1.58828.02206128-.55922216.11079564-1.11381192.26432-1.652l1.69684-6.09352c.38037663-1.24870567.57674674-2.54617939.58292-3.85152 0-4.55716-2.75648-6.93604-6.09588-6.93604-3.127 0-6.30828 2.832-7.89656 5.78908l1.16584-5.32888h-9.0624l-1.27204 4.69404h4.248l-2.61016 10.4548c-2.05084 4.55716-5.8174 4.63268-6.2894 4.52648-.77644-.17464-1.27204-.472-1.27204-1.47736.02332397-.8208482.14776949-1.63568895.37052-2.42608l3.9648-15.76952H12.036l-1.2744 4.69168h4.18664l-2.70456 11.04244z"/>
  </g>
</svg>
